<svg width="78" height="14" viewBox="0 0 78 14" fill="none" xmlns="http://www.w3.org/2000/svg">
<g clip-path="url(#clip0_572_770)">
<path d="M35.1834 0.873047H0.914062V13.5089H35.1834V0.873047Z" fill="#F6A330"/>
<path d="M4.23155 5.67969V11.9044H2.54688V5.67969H4.23155Z" fill="white"/>
<path d="M6.9073 6.00934C7.37487 5.65285 7.88342 5.47461 8.43292 5.47461C8.81852 5.47461 9.19211 5.54774 9.55361 5.694C9.91515 5.84026 10.2212 6.04362 10.4719 6.30412C10.7273 6.56007 10.9105 6.86626 11.0214 7.22275C11.137 7.57924 11.1949 8.02485 11.1949 8.55955V11.905H9.51025V8.66241C9.51025 7.96313 9.40178 7.49698 9.18488 7.26389C8.97279 7.03996 8.68114 6.92797 8.31 6.92797C7.82316 6.92797 7.4568 7.07194 7.21099 7.35985C7.00854 7.59752 6.9073 8.07512 6.9073 8.79264V11.905H5.22266V5.6803H6.9073V6.00934Z" fill="white"/>
<path d="M16.6542 6.94855L15.3455 7.56553C15.1527 7.30958 14.9864 7.13591 14.8466 7.0445C14.7068 6.94855 14.5405 6.90057 14.3477 6.90057C14.1404 6.90057 13.9741 6.94626 13.8488 7.03767C13.7283 7.12908 13.668 7.25019 13.668 7.40099C13.668 7.53809 13.7114 7.63867 13.7982 7.70263C13.8898 7.7666 14.1235 7.86718 14.4995 8.00428L15.0996 8.2168C15.5238 8.37218 15.8636 8.55042 16.1191 8.75153C16.5096 9.05772 16.7048 9.46905 16.7048 9.98551C16.7048 10.6116 16.4445 11.1326 15.9239 11.5485C15.466 11.9233 14.9068 12.1107 14.2465 12.1107C13.3692 12.1107 12.6847 11.793 12.1931 11.1578C12.0195 10.9338 11.8484 10.607 11.6797 10.1775L13.0534 9.65642C13.2607 10.0449 13.4487 10.3123 13.6174 10.4585C13.7909 10.6002 14.003 10.671 14.2537 10.671C14.4851 10.671 14.6706 10.6116 14.8104 10.4928C14.9502 10.3739 15.0201 10.2186 15.0201 10.0266C15.0201 9.89409 14.9695 9.79127 14.8683 9.71814C14.767 9.64043 14.5381 9.5376 14.1814 9.40963L13.5162 9.1697C12.5377 8.81321 12.0484 8.23737 12.0484 7.44214C12.0484 6.84343 12.2919 6.35667 12.7787 5.98194C13.227 5.64373 13.7548 5.47461 14.3621 5.47461C14.8779 5.47461 15.3165 5.59118 15.6781 5.82427C16.0444 6.05732 16.3698 6.43209 16.6542 6.94855Z" fill="white"/>
<path d="M18.9542 5.67969V11.9044H17.2695V5.67969H18.9542Z" fill="white"/>
<path d="M26.4251 11.9045H24.7404V11.5069C24.1813 11.9091 23.5932 12.1102 22.9762 12.1102C21.9543 12.1102 21.1011 11.7469 20.4167 11.0202C19.8238 10.394 19.5273 9.6491 19.5273 8.78532C19.5273 7.7844 19.9105 6.95947 20.6769 6.3105C21.3325 5.75294 22.0989 5.47412 22.9762 5.47412C23.5932 5.47412 24.1813 5.67523 24.7404 6.0774V2.54688H26.4251V11.9045ZM22.9762 6.92748C22.4219 6.92748 21.9712 7.13771 21.6241 7.55817C21.3638 7.8781 21.2337 8.28715 21.2337 8.78532C21.2337 9.37028 21.4096 9.83189 21.7615 10.1701C22.0989 10.4946 22.5134 10.6568 23.0051 10.6568C23.5787 10.6568 24.0318 10.4466 24.3644 10.0261C24.6199 9.69708 24.7476 9.28116 24.7476 8.77845C24.7476 8.20715 24.5765 7.75012 24.2343 7.40737C23.9113 7.08745 23.492 6.92748 22.9762 6.92748Z" fill="white"/>
<path d="M28.7235 9.38905C28.82 9.72726 28.9598 9.99005 29.1429 10.1775C29.4659 10.5019 29.8732 10.6642 30.3648 10.6642C30.9385 10.6642 31.4036 10.4928 31.7603 10.15C31.8278 10.0815 31.9386 9.9352 32.0929 9.71127L33.5245 10.2734C33.1967 10.7853 32.8738 11.1623 32.5556 11.4046C31.9338 11.8753 31.206 12.1107 30.3721 12.1107C29.3309 12.1107 28.485 11.7473 27.8342 11.0207C27.2703 10.3945 26.9883 9.64959 26.9883 8.78581C26.9883 8.19622 27.1305 7.65008 27.4149 7.14737C27.7137 6.61263 28.1282 6.19671 28.6585 5.89965C29.1646 5.61629 29.7117 5.47461 30.2998 5.47461C31.259 5.47461 32.0423 5.79911 32.6496 6.44809C33.257 7.09252 33.5606 7.92428 33.5606 8.94348C33.5606 9.03485 33.5582 9.1834 33.5534 9.38905H28.7235ZM31.876 8.19622C31.5868 7.32332 31.0613 6.88683 30.2998 6.88683C29.9045 6.88683 29.5695 7.0011 29.2948 7.22962C29.0248 7.45355 28.8344 7.77576 28.7235 8.19622H31.876Z" fill="white"/>
<path d="M36.8164 12.1057V2.74805H38.5011V6.2786C39.0602 5.87639 39.6483 5.67532 40.2653 5.67532C41.2872 5.67532 42.1405 6.03635 42.8249 6.75845C43.4176 7.3846 43.7141 8.12727 43.7141 8.98648C43.7141 9.99194 43.3311 10.8214 42.5646 11.475C41.9091 12.0326 41.1427 12.3113 40.2653 12.3113C39.6483 12.3113 39.0602 12.1103 38.5011 11.7081V12.1057H36.8164ZM40.2002 7.12864C39.6507 7.12864 39.2096 7.33887 38.877 7.75937C38.6216 8.08384 38.4939 8.49289 38.4939 8.98648C38.4939 9.5669 38.665 10.0285 39.0072 10.3713C39.335 10.6958 39.7447 10.858 40.2364 10.858C40.8098 10.858 41.2702 10.6455 41.6173 10.2205C41.8776 9.90053 42.0079 9.48919 42.0079 8.98648C42.0079 8.40605 41.8318 7.94674 41.4799 7.60853C41.1474 7.28861 40.721 7.12864 40.2002 7.12864Z" fill="white"/>
<path d="M45.9658 5.88086V12.1056H44.2812V5.88086H45.9658Z" fill="white"/>
<path d="M48.7114 7.32019V10.0967C48.7114 10.3297 48.7332 10.4897 48.7762 10.5765C48.8248 10.6634 48.9136 10.7068 49.0439 10.7068C49.2078 10.7068 49.4656 10.6542 49.8175 10.5491V12.0641C49.4562 12.1693 49.1308 12.2218 48.8414 12.2218C48.2581 12.2218 47.81 12.039 47.4968 11.6734C47.1833 11.3032 47.0265 10.7776 47.0265 10.0967V7.32019H46.3398V5.88057H47.0265V4.54376L48.7114 3.91992V5.88057H49.7235V7.32019H48.7114Z" fill="white"/>
<path d="M55.0042 7.99781C54.633 7.63219 54.344 7.39681 54.1367 7.2917C53.9294 7.182 53.662 7.12715 53.3343 7.12715C52.727 7.12715 52.2543 7.33738 51.9171 7.75788C51.6569 8.07777 51.5266 8.48682 51.5266 8.98499C51.5266 9.56999 51.7027 10.0316 52.0545 10.3698C52.387 10.6943 52.8158 10.8565 53.3414 10.8565C53.6691 10.8565 53.9582 10.7903 54.2089 10.6577C54.4597 10.5206 54.7369 10.2806 55.0405 9.93789L56.1683 10.9662C55.7106 11.4461 55.262 11.7911 54.8237 12.0014C54.385 12.207 53.8883 12.3098 53.3343 12.3098C52.259 12.3098 51.382 11.9488 50.7025 11.2267C50.1141 10.596 49.8203 9.85106 49.8203 8.99186C49.8203 7.98639 50.2033 7.15689 50.9698 6.50334C51.6205 5.95032 52.4087 5.67383 53.3343 5.67383C53.8741 5.67383 54.3586 5.77436 54.7874 5.97547C55.2214 6.172 55.6672 6.50334 56.1252 6.96948L55.0042 7.99781Z" fill="white"/>
<path d="M59.4601 5.67383C60.4674 5.67383 61.3136 6.03486 61.9979 6.75696C62.591 7.38311 62.8871 8.12578 62.8871 8.98499C62.8871 9.99045 62.5041 10.82 61.7377 11.4735C61.0869 12.0311 60.3086 12.3098 59.4024 12.3098C58.3465 12.3098 57.4766 11.9488 56.7923 11.2267C56.2039 10.6006 55.9102 9.84648 55.9102 8.96441C55.9102 7.98181 56.2932 7.16372 57.0596 6.51017C57.7104 5.95261 58.5104 5.67383 59.4601 5.67383ZM59.3661 7.12715C58.8069 7.12715 58.354 7.33738 58.0069 7.75788C57.7467 8.07777 57.6164 8.48682 57.6164 8.98499C57.6164 9.56999 57.7925 10.0316 58.1443 10.3698C58.4816 10.6943 58.9009 10.8565 59.4024 10.8565C59.9856 10.8565 60.4484 10.644 60.7904 10.219C61.051 9.89904 61.1809 9.4877 61.1809 8.98499C61.1809 8.40456 61.0052 7.94525 60.653 7.60704C60.3205 7.28712 59.8916 7.12715 59.3661 7.12715Z" fill="white"/>
<path d="M65.1259 5.88086V12.1056H63.4414V5.88086H65.1259Z" fill="white"/>
<path d="M67.8021 6.20852C68.2696 5.85207 68.7782 5.67383 69.3275 5.67383C69.7133 5.67383 70.0868 5.74696 70.4481 5.89318C70.8098 6.03944 71.1159 6.2428 71.3666 6.50334C71.6221 6.75925 71.8053 7.06548 71.9159 7.42197C72.0316 7.77842 72.0896 8.22403 72.0896 8.75876V12.1042H70.4047V8.86159C70.4047 8.16235 70.2965 7.69616 70.0793 7.46307C69.8673 7.23914 69.5759 7.12715 69.2047 7.12715C68.7178 7.12715 68.3514 7.27112 68.1058 7.55906C67.9032 7.7967 67.8021 8.2743 67.8021 8.99186V12.1042H66.1172V5.87948H67.8021V6.20852Z" fill="white"/>
<path d="M77.5488 7.14773L76.2402 7.76471C76.0471 7.5088 75.8809 7.33513 75.7411 7.24372C75.6013 7.14773 75.4351 7.09975 75.2424 7.09975C75.0351 7.09975 74.8688 7.14544 74.7432 7.23685C74.6228 7.32826 74.5624 7.44937 74.5624 7.60017C74.5624 7.73731 74.6058 7.83784 74.6927 7.90181C74.7843 7.96582 75.0181 8.06636 75.394 8.20346L75.9942 8.41598C76.4183 8.57136 76.7583 8.7496 77.0138 8.95071C77.4043 9.25693 77.5994 9.66823 77.5994 10.1847C77.5994 10.8108 77.3391 11.3318 76.8183 11.7477C76.3606 12.1225 75.8015 12.3098 75.1409 12.3098C74.2639 12.3098 73.5792 11.9922 73.0876 11.3569C72.9142 11.133 72.7428 10.8063 72.5742 10.3766L73.948 9.85564C74.1553 10.2441 74.3432 10.5114 74.5119 10.6577C74.6856 10.7994 74.8976 10.8702 75.1484 10.8702C75.3798 10.8702 75.5654 10.8108 75.7052 10.692C75.8449 10.5732 75.9148 10.4178 75.9148 10.2258C75.9148 10.0933 75.8639 9.99045 75.7628 9.91732C75.6617 9.83961 75.4327 9.73678 75.0761 9.60884L74.4108 9.36888C73.4323 9.01239 72.943 8.43655 72.943 7.64132C72.943 7.04261 73.1863 6.55589 73.6731 6.18112C74.1217 5.84291 74.6493 5.67383 75.2566 5.67383C75.7723 5.67383 76.211 5.79036 76.5727 6.02345C76.9391 6.25654 77.2645 6.63127 77.5488 7.14773Z" fill="white"/>
</g>
<defs>
<clipPath id="clip0_572_770">
<rect width="77" height="12.6359" fill="white" transform="translate(0.914062 0.873047)"/>
</clipPath>
</defs>
</svg>
