<svg width="86" height="12" viewBox="0 0 86 12" fill="none" xmlns="http://www.w3.org/2000/svg">
<path d="M6.67293 9.69968H3.62162V4.91655H0.570312V1.86523H6.65919V9.69968H6.67293ZM12.7755 9.69968H9.29816L12.5694 1.86523H16.0468L12.7755 9.69968ZM9.28441 1.86523C10.2465 1.86523 11.03 2.64868 11.03 3.6108C11.03 4.57293 10.2465 5.35637 9.28441 5.35637C8.32229 5.35637 7.53884 4.57293 7.53884 3.6108C7.55259 2.64868 8.32229 1.86523 9.28441 1.86523Z" fill="white"/>
<path d="M23.1243 8.75901H24.7325V2.45022H26.8354V0.924567H21.0352V2.45022H23.1243V8.75901ZM26.8354 8.75901H28.3473V6.12004C28.3473 5.19915 28.8146 4.64936 29.5431 4.64936C29.7905 4.64936 29.9967 4.6906 30.2303 4.77307V3.23367C30.0654 3.19243 29.8867 3.16495 29.7218 3.16495C29.1033 3.16495 28.5397 3.57728 28.3473 4.11332V3.23367H26.8354V8.75901ZM33.1304 8.88271C33.8864 8.88271 34.4637 8.49786 34.7248 8.1405V8.75901H36.2367V3.24741H34.7248V3.86592C34.4774 3.50856 33.9001 3.12371 33.1304 3.12371C31.6598 3.12371 30.5327 4.44319 30.5327 6.01008C30.5327 7.56323 31.6598 8.88271 33.1304 8.88271ZM33.4466 7.50825C32.6081 7.50825 32.0584 6.87599 32.0584 6.01008C32.0584 5.14417 32.6081 4.51192 33.4466 4.51192C34.285 4.51192 34.8348 5.14417 34.8348 6.01008C34.8348 6.87599 34.285 7.50825 33.4466 7.50825ZM39.8241 8.88271C40.58 8.88271 41.1573 8.49786 41.4185 8.1405V8.75901H42.9304V0.484739H41.4185V3.86592C41.171 3.50856 40.5938 3.12371 39.8241 3.12371C38.3534 3.12371 37.2263 4.44319 37.2263 6.01008C37.2401 7.56323 38.3534 8.88271 39.8241 8.88271ZM40.1539 7.50825C39.3155 7.50825 38.7657 6.87599 38.7657 6.01008C38.7657 5.14417 39.3155 4.51192 40.1539 4.51192C40.9924 4.51192 41.5422 5.14417 41.5422 6.01008C41.5422 6.87599 40.9924 7.50825 40.1539 7.50825ZM45.0333 2.40899C45.5693 2.40899 46.0092 1.9829 46.0092 1.44686C46.0092 0.910823 45.5693 0.484739 45.0333 0.484739C44.511 0.484739 44.0712 0.910823 44.0712 1.44686C44.0849 1.96916 44.511 2.39524 45.0333 2.40899ZM44.2911 8.75901H45.803V3.30239H44.2911V8.75901ZM47.1362 8.75901H48.6481V6.06506C48.6481 5.00672 49.1704 4.49817 49.8714 4.49817C50.5037 4.49817 50.8473 4.97924 50.8473 5.77643V8.75901H52.3592V5.52902C52.3592 4.09958 51.562 3.12371 50.2288 3.12371C49.514 3.12371 48.9505 3.42609 48.6481 3.87966V3.24741H47.1362V8.75901ZM56.2077 7.28834C55.4517 7.28834 54.8057 6.71106 54.8057 5.87264C54.8057 5.02047 55.438 4.45694 56.2077 4.45694C56.9636 4.45694 57.6096 5.02047 57.6096 5.87264C57.6096 6.7248 56.9774 7.28834 56.2077 7.28834ZM56.029 11.1506C57.7196 11.1506 58.9978 10.2847 58.9978 8.30544V3.21992H57.4859V3.83843C57.1836 3.41235 56.5925 3.09622 55.8916 3.09622C54.4484 3.09622 53.2938 4.33324 53.2938 5.88638C53.2938 7.42578 54.4484 8.6628 55.8916 8.6628C56.5925 8.6628 57.1973 8.34667 57.4859 7.93433V8.30544C57.4859 9.1851 56.8949 9.81735 56.0015 9.81735C55.383 9.81735 54.7645 9.61118 54.2834 9.13012L53.4588 10.2572C54.091 10.8757 55.0669 11.1506 56.029 11.1506ZM62.2003 8.75901H63.6298L66.8735 0.924567H65.1142L62.9288 6.36744L60.7159 0.924567H58.9841L62.2003 8.75901ZM68.248 2.34026C68.784 2.34026 69.2101 1.91418 69.2239 1.37814C69.2239 0.842099 68.784 0.416016 68.248 0.416016C67.7257 0.416016 67.2859 0.842099 67.2859 1.37814C67.2859 1.91418 67.7394 2.34026 68.248 2.34026ZM67.5058 8.75901H69.0177V3.23367H67.5058V8.75901ZM72.9212 8.88271C74.0757 8.88271 74.9554 8.40165 75.4777 7.64569L74.3506 6.80727C74.1032 7.19212 73.6221 7.50825 72.9212 7.50825C72.1927 7.50825 71.5467 7.09591 71.4505 6.3537H75.5739C75.6014 6.12004 75.6014 5.96885 75.6014 5.8314C75.6014 4.03086 74.3369 3.12371 72.8799 3.12371C71.2031 3.12371 69.9798 4.37447 69.9798 5.99634C70.0073 7.74191 71.2855 8.88271 72.9212 8.88271ZM71.5192 5.3366C71.6704 4.66311 72.2889 4.37447 72.8524 4.37447C73.416 4.37447 73.9657 4.67685 74.1032 5.3366H71.5192ZM81.2779 8.75901H82.7761L84.5904 3.23367H82.9685L81.9376 6.76604L80.8106 3.23367H79.656L78.5427 6.76604L77.4981 3.23367H75.89L77.718 8.75901H79.2162L80.247 5.62523L81.2779 8.75901Z" fill="white"/>
</svg>
