<svg width="87" height="19" viewBox="0 0 87 19" fill="none" xmlns="http://www.w3.org/2000/svg">
<path d="M52.8096 6.48619C52.8096 4.44823 52.8096 2.46906 52.8096 0.470298C52.8096 0.254745 52.8488 0.156765 53.0839 0.195956C53.4366 0.235148 53.7502 0.235148 54.0833 0.195956C54.2989 0.195956 54.338 0.254744 54.338 0.450701C54.338 1.33251 54.338 2.21432 54.338 3.07653C54.338 5.60438 54.338 8.15182 54.338 10.7189C54.338 10.9736 54.2793 11.0324 54.0245 11.0324C53.6522 10.9932 53.2407 11.0324 52.8292 11.0324C52.6332 11.0324 52.5548 10.9932 52.5156 10.7777C51.8886 8.40657 51.2223 6.01589 50.5953 3.6644C50.5561 3.56642 50.5561 3.46844 50.4777 3.39006C50.4777 5.83953 50.4777 8.2694 50.4777 10.7189C50.4777 10.9736 50.4189 11.0716 50.1642 11.0324C49.8506 10.9932 49.5371 10.9932 49.2236 11.0324C48.9688 11.0716 48.9492 10.9736 48.9492 10.7581C48.9492 8.91606 48.9492 7.05446 48.9492 5.25166C48.9492 3.684 48.9492 2.09674 48.9492 0.529083C48.9492 0.31353 48.9884 0.254744 49.2236 0.254744C49.7526 0.293935 50.2817 0.293935 50.8304 0.254744C51.0264 0.254744 51.1048 0.313532 51.1439 0.509489C51.6534 2.44947 52.1825 4.36985 52.6724 6.30982C52.7312 6.32942 52.7312 6.4274 52.8096 6.48619Z" fill="white"/>
<path d="M34.2148 5.21279C34.254 4.54653 34.156 3.44917 34.254 2.391C34.4107 0.568596 35.6649 -0.0192757 37.0953 0.13749C38.4475 0.294256 39.1333 1.07809 39.2313 2.54777C39.2705 2.92008 39.2313 3.29241 39.2313 3.70392C39.2313 3.86068 39.1725 3.89987 39.0353 3.89987C38.6238 3.89987 38.2123 3.89987 37.8204 3.89987C37.6636 3.89987 37.6244 3.84109 37.6244 3.70392C37.6244 3.29241 37.6244 2.92009 37.6244 2.50857C37.5852 1.88151 37.1933 1.52879 36.5271 1.66596C36.2135 1.72475 35.998 1.9403 35.9392 2.29302C35.9 2.44979 35.9 2.64575 35.9 2.80251C35.9 4.6837 35.9 6.56489 35.9 8.44608C35.9 8.56366 35.9 8.70083 35.9392 8.8184C35.998 9.34748 36.3115 9.60223 36.8406 9.56304C37.3501 9.52385 37.6244 9.24951 37.6636 8.74002C37.7028 8.23053 37.7028 7.74064 37.6636 7.23115C37.6636 7.03519 37.7028 6.95681 37.9184 6.9764C38.2907 7.01559 38.7022 6.9764 39.1137 6.9764C39.2117 6.9764 39.3097 6.9764 39.3097 7.13317C39.2705 7.87781 39.3685 8.64204 39.2117 9.36708C38.9569 10.4253 38.2319 11.0523 37.1345 11.1503C36.821 11.1895 36.4683 11.1895 36.1548 11.1111C35.0574 10.8955 34.3911 10.1313 34.3128 9.03395C34.3128 8.87719 34.2736 8.72042 34.2736 8.60285C34.1756 7.58387 34.2148 6.62368 34.2148 5.21279Z" fill="white"/>
<path d="M62.2171 3.13625C61.9624 3.13625 61.6488 3.23422 61.4725 3.09705C61.2765 2.97948 61.4137 2.62676 61.3745 2.37201C61.3157 1.86252 61.0218 1.58818 60.5515 1.58818C60.042 1.58818 59.8068 1.84293 59.7285 2.33282C59.6305 2.95989 59.8264 3.52816 60.2379 4.01805C60.5123 4.37078 60.865 4.68431 61.1785 4.99784C61.6097 5.40935 62.0212 5.78167 62.3739 6.29116C63.0597 7.29054 63.1969 8.42709 62.8442 9.58324C62.5894 10.4063 62.0604 10.8766 61.2373 11.0333C60.7082 11.1509 60.1988 11.1313 59.6697 10.9941C58.7291 10.7786 58.1412 10.0143 58.004 8.89739C57.9648 8.54467 58.004 8.21154 57.9648 7.85882C57.9648 7.70205 58.0236 7.66286 58.1608 7.66286C58.5723 7.66286 58.9838 7.66286 59.3757 7.66286C59.5325 7.66286 59.5717 7.72165 59.5717 7.87841C59.5717 8.23113 59.5325 8.54467 59.6305 8.87779C59.7285 9.28931 59.9832 9.50486 60.4535 9.50486C60.8846 9.50486 61.1785 9.3089 61.2961 8.91699C61.4529 8.34871 61.3353 7.78043 61.0218 7.29054C60.7474 6.85943 60.3555 6.46752 59.9636 6.13439C59.5521 5.76207 59.1798 5.40935 58.8271 4.97825C58.0432 3.97886 57.8473 2.84231 58.1608 1.66657C58.3764 0.72597 59.0034 0.196885 59.9832 0.0401188C60.4143 -0.0186684 60.8258 -0.018666 61.2373 0.0793127C62.1779 0.294866 62.805 0.980714 62.9226 1.99969C62.9618 2.27403 62.9814 2.56797 62.9814 2.8815C62.9814 3.03827 62.9422 3.09705 62.7854 3.09705C62.6286 3.13625 62.4327 3.17544 62.2171 3.13625C62.2171 3.17544 62.2171 3.17544 62.2171 3.13625Z" fill="white"/>
<path d="M65.3731 6.42871C65.3731 5.01782 65.3731 3.60692 65.3731 2.17644C65.3731 1.76493 65.3731 1.76492 65.0007 1.76492C64.6284 1.76492 64.2561 1.76492 63.8446 1.76492C63.6486 1.76492 63.5898 1.72573 63.5898 1.54937C63.5898 1.17705 63.5898 0.804733 63.5898 0.393223C63.5898 0.236457 63.629 0.197266 63.7858 0.197266C65.4122 0.197266 67.0191 0.197266 68.6455 0.197266C68.8023 0.197266 68.8415 0.236457 68.8415 0.393223C68.8415 0.804733 68.8415 1.17705 68.8415 1.58856C68.8415 1.74533 68.8023 1.80411 68.6455 1.80411C68.2144 1.80411 67.7637 1.80411 67.3522 1.80411C67.0975 1.80411 67.0779 1.8629 67.0779 2.07846C67.0779 4.95903 67.0779 7.8396 67.0779 10.7202C67.0779 10.9749 67.0191 11.0729 66.7644 11.0729C66.392 11.0337 66.0197 11.0337 65.6278 11.0729C65.4122 11.0729 65.3731 11.0141 65.3731 10.7986C65.3731 9.30928 65.3731 7.87879 65.3731 6.42871Z" fill="white"/>
<path d="M30.2363 6.40911C30.2363 4.93943 30.2363 3.48935 30.2363 2.01967C30.2363 1.80412 30.1775 1.74533 29.9815 1.76492C29.57 1.80412 29.1389 1.76492 28.7274 1.76492C28.5118 1.76492 28.4727 1.70614 28.4727 1.51018C28.4727 1.13786 28.4727 0.785139 28.4727 0.41282C28.4727 0.256054 28.5118 0.197266 28.6882 0.197266C30.2951 0.197266 31.9215 0.197266 33.5088 0.197266C33.6263 0.197266 33.7047 0.236457 33.7047 0.393223C33.7047 0.804733 33.7047 1.21624 33.7047 1.58856C33.7047 1.74533 33.6459 1.78452 33.5088 1.78452C33.0777 1.78452 32.6269 1.78452 32.2154 1.78452C31.9999 1.78452 31.9411 1.84331 31.9411 2.05886C31.9411 4.93943 31.9411 7.82001 31.9411 10.7006C31.9411 10.9749 31.8431 11.0533 31.5884 11.0533C31.2357 11.0141 30.9025 11.0141 30.5302 11.0533C30.3147 11.0533 30.2167 10.9945 30.2167 10.779C30.2559 9.30928 30.2363 7.8396 30.2363 6.40911Z" fill="white"/>
<path d="M71.7983 1.56919C71.7395 1.68677 71.7591 1.82394 71.7591 1.92192C71.7591 4.86128 71.7591 7.78104 71.7591 10.7204C71.7591 10.8184 71.8179 10.9751 71.7003 10.9947C71.5435 11.0339 71.328 11.0339 71.1712 10.9947C71.1124 10.9947 71.132 10.838 71.132 10.7792C71.132 10.1913 71.132 9.56425 71.132 8.95678C71.132 6.135 71.132 3.31321 71.132 0.491427C71.132 0.236682 71.1712 0.138703 71.4456 0.138703C72.0334 0.177894 72.0334 0.138705 72.2686 0.706981C73.2092 3.3916 74.189 6.135 75.11 8.81961C75.1492 8.91759 75.1688 9.01557 75.208 9.09395C75.3059 8.97638 75.2667 8.83921 75.2667 8.74123C75.2667 5.97823 75.2667 3.19564 75.2667 0.432639C75.2667 0.33466 75.208 0.177896 75.3255 0.1583C75.4823 0.119108 75.6783 0.119108 75.8546 0.1583C75.9134 0.1583 75.8938 0.275874 75.8938 0.354257C75.8938 0.824555 75.8938 1.29485 75.8938 1.72596C75.8938 4.70451 75.8938 7.68306 75.8938 10.6616C75.8938 10.8772 75.835 10.9751 75.6195 10.936C75.11 10.8968 75.11 10.936 74.9532 10.4657C73.9538 7.54589 72.9153 4.64572 71.9159 1.72596C71.8571 1.76515 71.8375 1.66717 71.7983 1.56919Z" fill="white"/>
<path d="M57.1033 5.64528C57.1033 7.33051 57.1033 9.03534 57.1033 10.7206C57.1033 10.9753 57.0641 11.0733 56.7898 11.0341C56.4175 10.9949 56.006 11.0341 55.5945 11.0341C55.4377 11.0341 55.3789 10.9753 55.3789 10.8186C55.3789 10.0935 55.3789 9.34887 55.3789 8.62383C55.3789 5.93922 55.3789 3.23501 55.3789 0.55039C55.3789 0.295646 55.4377 0.197666 55.6924 0.236857C56.0648 0.276049 56.4371 0.276049 56.8486 0.236857C57.0445 0.236857 57.1033 0.295645 57.1033 0.491603C57.1033 2.19643 57.1033 3.92086 57.1033 5.64528Z" fill="white"/>
<path d="M47.8338 5.64423C47.8338 7.32947 47.8338 9.05389 47.8338 10.7587C47.8338 11.0135 47.775 11.0723 47.5203 11.0331C47.1675 10.9939 46.8344 10.9939 46.4817 11.0331C46.2074 11.0723 46.1094 10.9743 46.1094 10.6607C46.1094 7.93693 46.1094 5.23272 46.1094 2.50892C46.1094 1.82306 46.1094 1.15681 46.1094 0.470961C46.1094 0.216216 46.1682 0.157427 46.4229 0.196619C46.7952 0.23581 47.148 0.23581 47.5203 0.196619C47.775 0.196619 47.8338 0.255407 47.8338 0.510152C47.8338 2.23458 47.8338 3.91981 47.8338 5.64423Z" fill="white"/>
<path d="M27.6702 5.62502C27.6702 7.34945 27.6702 9.07387 27.6702 10.7983C27.6702 11.0139 27.6311 11.0726 27.4155 11.0726C27.0432 11.0334 26.6709 11.0334 26.2594 11.0726C26.0438 11.0726 25.9458 11.0139 25.985 10.7983C25.985 8.34883 25.985 5.91896 25.985 3.46949C25.985 2.48971 25.985 1.49032 25.985 0.530133C25.985 0.334175 26.0242 0.275391 26.2398 0.275391C26.6121 0.314582 26.9844 0.314582 27.3959 0.275391C27.6507 0.275391 27.7094 0.334176 27.7094 0.588921C27.6311 2.19577 27.6702 3.92019 27.6702 5.62502Z" fill="white"/>
<path d="M76.7579 5.64488C76.7579 3.92045 76.7579 2.23522 76.7579 0.510798C76.7579 0.256054 76.8167 0.197266 77.0714 0.197266C78.2863 0.197266 79.5209 0.236457 80.7358 0.197266C81.0493 0.197266 80.9906 0.354032 80.9906 0.549989C80.9906 0.706755 81.0493 0.902713 80.7358 0.902713C79.7364 0.863522 78.737 0.902713 77.7377 0.902713C77.5221 0.902713 77.4829 0.961501 77.4829 1.15746C77.4829 2.45078 77.4829 3.7245 77.4829 4.97863C77.4829 5.19418 77.5221 5.25296 77.7377 5.25296C78.5607 5.25296 79.3641 5.25296 80.1871 5.25296C80.4615 5.25296 80.4419 5.40973 80.4419 5.5665C80.4419 5.72326 80.5399 5.93881 80.1871 5.91922C79.3641 5.88003 78.5607 5.91922 77.7377 5.91922C77.5221 5.91922 77.4829 5.97801 77.4829 6.19356C77.4829 7.50647 77.4829 8.81939 77.4829 10.1323C77.4829 10.3479 77.5221 10.4458 77.7573 10.4458C78.737 10.4458 79.6972 10.4458 80.677 10.4458C80.9514 10.4458 80.9906 10.5438 80.9906 10.7986C80.9906 11.0141 80.9514 11.1121 80.677 11.1121C79.4621 11.0729 78.2276 11.1121 77.0126 11.1121C76.7971 11.1121 76.7383 11.0533 76.7383 10.8573C76.7579 9.05454 76.7579 7.3693 76.7579 5.64488Z" fill="white"/>
<path d="M84.7127 5.95841C84.7127 7.56526 84.7127 9.15252 84.7127 10.7594C84.7127 10.9749 84.6735 11.1121 84.4383 11.0337C84.3403 11.0337 84.2424 11.0337 84.164 11.0337C84.0464 11.0337 83.968 10.9945 84.0072 10.8769C84.0072 10.8182 84.0072 10.7594 84.0072 10.6614C84.0072 7.50648 84.0072 4.33197 84.0072 1.17705C84.0072 0.922308 83.9484 0.863522 83.6937 0.863522C83.1646 0.902714 82.5963 0.863522 82.0672 0.863522C81.8713 0.863522 81.8125 0.82433 81.8125 0.608777C81.8125 0.197267 81.8125 0.197266 82.224 0.197266C83.6937 0.197266 85.1634 0.197266 86.6331 0.197266C86.9858 0.197266 86.8878 0.393225 86.9074 0.569586C86.9466 0.785139 86.8682 0.883116 86.6331 0.883116C86.0648 0.843925 85.5357 0.883116 84.9674 0.883116C84.7519 0.883116 84.7127 0.941904 84.7127 1.13786C84.7127 2.74471 84.7127 4.33197 84.7127 5.95841Z" fill="white"/>
<path d="M69.0162 10.3871C69.0162 10.2695 69.0554 10.1323 69.0162 10.0344C68.9575 9.76002 69.1142 9.72083 69.369 9.68164C69.6825 9.68164 69.7805 9.74043 69.7413 10.054C69.7021 10.3087 69.7413 10.583 69.7413 10.8378C69.7413 10.9946 69.7021 11.0533 69.5453 11.0533C69.0358 11.0925 69.0358 11.0925 69.0358 10.583C69.0162 10.5047 69.0162 10.4459 69.0162 10.3871Z" fill="white"/>
<path d="M56.4558 16.4218C56.5733 15.54 56.7301 14.6582 56.8673 13.7568C56.8673 13.6588 56.8673 13.5412 57.024 13.5608C57.1808 13.5608 57.1416 13.6784 57.1808 13.7764C57.2984 14.5994 57.4356 15.442 57.5531 16.2454C57.5531 16.3042 57.5531 16.4022 57.6511 16.461C57.8079 15.5596 57.9254 14.6778 58.0822 13.796C58.0822 13.7568 58.0822 13.698 58.0822 13.6784C58.0822 13.5804 58.1214 13.5216 58.239 13.5216C58.337 13.5608 58.2978 13.6196 58.2978 13.6784C58.239 14.1095 58.1802 14.5602 58.0822 14.9913C57.9842 15.5792 57.8863 16.1866 57.8079 16.7745C57.7687 16.8725 57.8079 16.9901 57.6511 16.9901C57.4552 16.9901 57.4552 16.8725 57.4552 16.7353C57.3376 15.9123 57.2004 15.1089 57.0436 14.2271C56.9261 14.5798 56.8869 14.8933 56.8281 15.2068C56.7301 15.7163 56.6713 16.2454 56.5733 16.7353C56.5342 16.8333 56.5733 16.9901 56.3774 16.9901C56.1618 16.9901 56.1814 16.8725 56.1618 16.7353C56.0051 15.7555 55.8483 14.7561 55.6915 13.796C55.6915 13.698 55.6523 13.6392 55.6523 13.5412C55.6523 13.502 55.7111 13.4824 55.7503 13.4824C55.8679 13.4824 55.8679 13.6 55.8679 13.6784C55.9855 14.423 56.1226 15.2068 56.2402 15.9711C56.2794 16.0887 56.2794 16.2258 56.299 16.3434C56.3578 16.4022 56.3578 16.461 56.3382 16.5394C56.397 16.5785 56.397 16.4806 56.4558 16.4218Z" fill="white"/>
<path d="M76.7574 16.3628C76.7574 15.5398 76.7574 14.6972 76.7574 13.8937C76.7574 13.7958 76.7574 13.737 76.7574 13.639C76.7574 13.5802 76.7966 13.541 76.8554 13.541C76.9141 13.541 76.9533 13.5802 76.9533 13.639C76.9533 13.6978 76.9533 13.7566 76.9533 13.835C76.9533 14.8147 76.9533 15.8141 76.9533 16.7743C76.9533 16.8723 77.0513 16.9899 76.8554 17.0291C76.6594 17.0682 76.6594 16.9311 76.6398 16.8135C76.3263 15.9121 76.0127 15.0303 75.66 14.1289C75.66 14.1877 75.6208 14.2465 75.6208 14.3444C75.6208 15.1675 75.6208 16.0101 75.6208 16.8135C75.6208 16.9115 75.6796 17.0291 75.5228 17.0291C75.3661 17.0291 75.4249 16.8723 75.4249 16.8135C75.4249 15.8141 75.4249 14.8147 75.4249 13.8154C75.4249 13.7174 75.3661 13.5998 75.5424 13.5606C75.6992 13.5606 75.7384 13.6586 75.7972 13.7762C76.0715 14.5992 76.385 15.4418 76.679 16.2452C76.7182 16.2648 76.7182 16.3236 76.7574 16.3628Z" fill="white"/>
<path d="M63.6277 14.129C63.6277 15.0108 63.6277 15.8534 63.6277 16.7352C63.6277 16.8332 63.6277 16.892 63.6277 16.99C63.6277 17.0488 63.5689 17.088 63.5297 17.088C63.4709 17.088 63.4317 17.0488 63.4317 16.99C63.4317 16.9312 63.4317 16.8724 63.4317 16.7744C63.4317 15.8338 63.4317 14.8932 63.4317 13.9331C63.4317 13.8155 63.3142 13.6195 63.5493 13.5607C63.7649 13.5215 63.7649 13.7175 63.8237 13.8351C64.098 14.6189 64.3919 15.4419 64.6663 16.2062C64.7055 16.2454 64.7055 16.3041 64.7642 16.3237C64.7642 15.7359 64.7642 15.1284 64.7642 14.5013C64.7642 14.227 64.7642 13.9331 64.7642 13.6587C64.7642 13.5999 64.7642 13.502 64.8622 13.502C64.9602 13.502 64.9602 13.5999 64.9602 13.6587C64.9602 14.7169 64.9602 15.7947 64.9602 16.8528C64.9602 16.9116 64.9602 16.9704 64.8622 17.0096C64.7447 17.0096 64.6663 16.9508 64.6467 16.8528C64.4311 16.2258 64.2156 15.6379 63.9804 15.0108C63.8824 14.6973 63.7649 14.423 63.6669 14.1094C63.6473 14.129 63.6277 14.129 63.6277 14.129Z" fill="white"/>
<path d="M42.3469 16.4028C42.3469 15.5602 42.3469 14.7372 42.3469 13.9338C42.3469 13.8358 42.3469 13.777 42.3469 13.679C42.3469 13.6202 42.3861 13.581 42.4449 13.581C42.5429 13.581 42.5429 13.6202 42.5429 13.679C42.5429 13.7378 42.5429 13.7966 42.5429 13.8946C42.5429 14.8352 42.5429 15.7758 42.5429 16.736C42.5429 16.8339 42.6409 17.0103 42.4449 17.0495C42.2293 17.1083 42.2293 16.8927 42.1901 16.7751C41.9158 15.9521 41.6219 15.1487 41.3475 14.3257C41.3083 14.2669 41.2887 14.2081 41.23 14.1689C41.23 14.9919 41.23 15.8345 41.23 16.638C41.23 16.7555 41.3475 17.0495 41.132 17.0495C40.9164 17.0495 41.0144 16.7751 41.0144 16.638C41.0144 15.6974 41.0144 14.7568 41.0144 13.8162C41.0144 13.7182 40.9556 13.6006 41.132 13.5614C41.2887 13.5223 41.3475 13.6202 41.3867 13.7574C41.6611 14.5804 41.955 15.3838 42.2685 16.2069C42.2685 16.2657 42.2685 16.3244 42.3469 16.4028Z" fill="white"/>
<path d="M74.9738 15.3242C74.9738 15.8337 74.9738 16.3235 74.9738 16.833C74.9738 16.931 75.0326 17.0486 74.8563 17.0486C74.6603 17.0486 74.7387 16.931 74.7387 16.833C74.7387 16.4215 74.7387 16.01 74.7387 15.6377C74.7387 15.4417 74.6799 15.4221 74.5231 15.4221C74.2488 15.4613 73.8961 15.3046 73.7001 15.4809C73.5434 15.6377 73.6609 15.9904 73.6413 16.2648C73.6413 16.4803 73.6413 16.6763 73.6413 16.8918C73.6413 16.9506 73.6805 17.0486 73.5434 17.0878C73.4258 17.0878 73.4258 17.029 73.4258 16.931C73.4258 15.8728 73.4258 14.8343 73.4258 13.7761C73.4258 13.6781 73.4258 13.6193 73.5434 13.6193C73.7001 13.6193 73.6609 13.7369 73.6609 13.8153C73.6609 14.2268 73.6609 14.6383 73.6609 15.0106C73.6609 15.2066 73.7197 15.2654 73.9157 15.2262C74.19 15.187 74.5427 15.3242 74.6995 15.1674C74.8955 15.0106 74.7387 14.6579 74.7583 14.3836C74.7583 14.168 74.7583 13.9721 74.7583 13.7565C74.7583 13.6977 74.7191 13.5997 74.8563 13.5605C75.013 13.5605 74.9738 13.6585 74.9738 13.7565C74.9738 14.266 74.9738 14.7951 74.9738 15.3242Z" fill="white"/>
<path d="M83.0067 15.3643C83.0067 15.717 83.0067 16.0305 83.0067 16.3637C83.0459 16.7164 83.2223 16.8928 83.5162 16.8928C83.7906 16.8928 83.9865 16.6968 84.0257 16.3833C84.0257 16.2265 84.0257 16.0697 84.0257 15.9522C84.0257 15.7366 84.0845 15.4231 83.673 15.5211C83.6142 15.5211 83.5554 15.4819 83.5554 15.4231C83.5554 15.3643 83.5946 15.3251 83.673 15.3251C83.7906 15.3251 83.9473 15.3251 84.0845 15.3251C84.1825 15.3251 84.2021 15.3839 84.2021 15.4819C84.2021 15.8542 84.2413 16.2265 84.1629 16.5792C84.0649 16.9515 83.8494 17.1475 83.4378 17.1475C83.0655 17.1475 82.85 16.9515 82.752 16.6184C82.654 16.3441 82.7128 16.0501 82.7128 15.7366C82.7128 15.3055 82.7128 14.8548 82.7128 14.4237C82.7128 13.9534 82.9675 13.6791 83.3399 13.6007C83.9277 13.5419 84.3392 14.0122 84.2217 14.6001C84.2217 14.6588 84.1825 14.7176 84.1237 14.7176C84.0257 14.7176 84.0061 14.6588 84.0061 14.6001C84.0061 14.5021 84.0061 14.4433 84.0061 14.3453C83.9669 13.9926 83.7906 13.8162 83.477 13.8162C83.2027 13.8162 83.0067 14.0122 82.9675 14.3453C82.9871 14.6392 83.0067 14.992 83.0067 15.3643Z" fill="white"/>
<path d="M33.587 15.0695C33.587 14.5993 33.587 14.2269 33.587 13.8154C33.587 13.7174 33.489 13.5411 33.685 13.5411C33.9005 13.5411 33.8025 13.737 33.8025 13.8154C33.8025 14.5992 33.8025 15.3831 33.8025 16.1669C33.8025 16.3629 33.8417 16.5392 33.9593 16.6764C34.1161 16.8332 34.312 16.8724 34.4884 16.794C34.704 16.7352 34.8019 16.5392 34.8411 16.3237C34.8803 16.0101 34.8803 15.7358 34.8803 15.4223C34.8803 14.854 34.8803 14.2857 34.8803 13.737C34.8803 13.6391 34.8215 13.5215 34.9979 13.5215C35.1547 13.5215 35.0959 13.6783 35.0959 13.737C35.0959 14.5209 35.0959 15.2655 35.0959 16.0493C35.0959 16.1669 35.0567 16.3237 35.0371 16.4608C34.9391 16.8136 34.7235 16.9899 34.3708 16.9899C33.9985 16.9899 33.7438 16.8332 33.6458 16.4804C33.489 16.0493 33.6066 15.5203 33.587 15.0695Z" fill="white"/>
<path d="M20.3608 15.4224C20.3608 14.9913 20.3608 14.6777 20.3608 14.325C20.4 13.8547 20.6156 13.5804 20.9879 13.5412C21.5757 13.502 21.9873 14.0115 21.8305 14.5994C21.7913 14.6581 21.7913 14.6973 21.7129 14.6973C21.6541 14.6973 21.6149 14.6581 21.6149 14.5798C21.6149 14.4622 21.6149 14.325 21.5757 14.2074C21.5366 13.9331 21.3798 13.7763 21.1054 13.7763C20.8311 13.7763 20.596 13.9331 20.5764 14.2074C20.5176 14.9521 20.5176 15.7163 20.5764 16.4609C20.6156 16.7353 20.7919 16.8921 21.0859 16.8921C21.3602 16.8921 21.5562 16.7353 21.5953 16.4609C21.6345 16.3042 21.5953 16.1474 21.6345 15.9907C21.6345 15.9319 21.6737 15.8339 21.7521 15.8731C21.8501 15.8731 21.8501 15.9319 21.8501 16.0298C21.8501 16.2454 21.8501 16.4414 21.7913 16.6569C21.6933 17.0096 21.4386 17.1664 21.1054 17.1664C20.7331 17.1664 20.5176 17.0096 20.4196 16.6569C20.302 16.167 20.4 15.7359 20.3608 15.4224Z" fill="white"/>
<path d="M31.7049 15.4221C31.7049 14.991 31.6657 14.6382 31.7049 14.3247C31.7441 13.7564 32.0576 13.4821 32.5867 13.5801C32.9982 13.6389 33.3706 14.3051 33.1746 14.6774C33.1354 14.7362 33.1158 14.7362 33.057 14.7362C32.9982 14.7362 32.959 14.697 32.959 14.6382C32.959 14.5207 32.959 14.3835 32.959 14.2659C32.9199 13.9524 32.7435 13.7564 32.4496 13.7564C32.1752 13.7564 31.9401 13.9132 31.9205 14.2267C31.8813 14.9518 31.8813 15.6964 31.9205 16.4214C31.9597 16.6958 32.136 16.8917 32.43 16.8917C32.7239 16.8917 32.9003 16.735 32.9395 16.4214C32.9786 16.2647 32.9394 16.1079 32.9786 15.9512C32.9786 15.8924 32.9786 15.8336 33.0766 15.8336C33.1746 15.8336 33.1942 15.8728 33.1942 15.9512C33.1942 16.2059 33.1942 16.4214 33.1354 16.6762C33.0178 16.9897 32.7827 17.1073 32.4104 17.1073C32.0576 17.1073 31.8421 16.9113 31.7441 16.5978C31.6461 16.1471 31.7245 15.7356 31.7049 15.4221Z" fill="white"/>
<path d="M43.1689 15.3048C43.1689 15.6575 43.1689 15.9906 43.1689 16.3433C43.2081 16.6961 43.3844 16.8724 43.698 16.8724C43.9723 16.8724 44.1683 16.6765 44.2074 16.3433C44.2074 16.2258 44.2074 16.0886 44.2074 15.971C44.2074 15.9122 44.2074 15.8142 44.3054 15.8142C44.4034 15.8142 44.423 15.873 44.423 15.9318C44.423 16.1474 44.423 16.3629 44.3642 16.5981C44.2662 16.9116 44.0115 17.1076 43.6392 17.0684C43.2864 17.0684 43.0709 16.9116 42.9533 16.5589C42.8945 16.3433 42.8945 16.1474 42.8945 15.9318C42.8945 15.4027 42.8945 14.8737 42.8945 14.325C42.8945 13.7959 43.1689 13.502 43.6196 13.502C44.1487 13.502 44.5602 14.0702 44.4034 14.5601C44.3642 14.6189 44.3446 14.6581 44.3054 14.6581C44.2466 14.6581 44.1879 14.6189 44.1879 14.5601C44.1879 14.4425 44.1879 14.3054 44.1879 14.1878C44.1487 13.8743 43.9723 13.6783 43.6784 13.6783C43.3844 13.6783 43.1689 13.8351 43.1689 14.1486C43.1297 14.5797 43.1689 14.952 43.1689 15.3048Z" fill="white"/>
<path d="M71.6024 15.4237C71.6024 14.9926 71.6024 14.6399 71.6024 14.3264C71.6416 13.7973 71.9159 13.5033 72.4254 13.5425C72.8957 13.5817 73.268 14.2088 73.0916 14.6399C73.0525 14.6987 73.0329 14.6987 72.9741 14.6987C72.9153 14.6987 72.8761 14.6399 72.8761 14.5811C72.8761 14.4635 72.8761 14.3264 72.8369 14.2088C72.7977 13.9345 72.6409 13.7777 72.3666 13.7777C72.0923 13.7777 71.8571 13.9345 71.8375 14.2088C71.7787 14.9534 71.7787 15.7177 71.8375 16.4623C71.8767 16.7366 72.0531 16.8934 72.347 16.8934C72.6409 16.8934 72.7781 16.7366 72.8565 16.4623C72.8957 16.3055 72.8957 16.1488 72.8957 15.992C72.8957 15.894 72.8957 15.8352 73.0133 15.8352C73.1112 15.8352 73.1112 15.894 73.1112 15.992C73.1112 16.2076 73.1112 16.4035 73.0524 16.6191C72.9545 16.9718 72.6997 17.1286 72.3666 17.1286C71.9943 17.1286 71.7787 16.9718 71.6807 16.6191C71.5436 16.1488 71.6024 15.7373 71.6024 15.4237Z" fill="white"/>
<path d="M52.0665 16.6376C52.282 15.697 52.478 14.7564 52.6935 13.8158C52.6935 13.7766 52.6935 13.7178 52.7327 13.6982C52.7327 13.6002 52.7915 13.5414 52.8895 13.5806C53.0071 13.6198 52.9483 13.6982 52.9483 13.7766C52.7523 14.6192 52.5955 15.4422 52.4192 16.2848C52.38 16.4808 52.3212 16.6572 52.3016 16.8727C52.2624 16.9903 52.2428 17.0883 52.0861 17.0883C51.9293 17.0883 51.8901 16.9903 51.8705 16.8923C51.655 15.8537 51.4394 14.8152 51.2042 13.8158C51.1651 13.757 51.1063 13.6198 51.263 13.6002C51.3806 13.6002 51.3806 13.6982 51.4198 13.7962C51.6354 14.776 51.8313 15.7362 52.0469 16.716C52.0273 16.6376 52.0273 16.6376 52.0665 16.6376Z" fill="white"/>
<path d="M59.3553 17.0888C58.8459 17.0888 58.4735 16.6185 58.6107 16.1482C58.6499 16.0894 58.6499 16.0502 58.7283 16.0502C58.8067 16.0502 58.8263 16.109 58.8263 16.1678C58.8263 16.2853 58.8263 16.4225 58.8655 16.5205C58.9242 16.736 59.081 16.8732 59.3358 16.8928C59.5905 16.8928 59.7669 16.7948 59.8452 16.5401C59.9628 16.1678 59.8844 15.8542 59.5709 15.6387C59.3749 15.4819 59.1594 15.3252 58.983 15.1292C58.7087 14.8745 58.6107 14.5413 58.6695 14.1494C58.7675 13.7183 59.0222 13.5223 59.4925 13.5615C59.8648 13.6007 60.0804 13.8359 60.1196 14.2474C60.1196 14.3454 60.1784 14.4629 60.0216 14.4629C59.8648 14.4629 59.9236 14.3454 59.904 14.267C59.8452 13.8947 59.6493 13.6987 59.3358 13.7379C58.9634 13.7771 58.7675 14.2474 58.9242 14.6393C58.983 14.8353 59.1398 14.9528 59.277 15.0704C59.4729 15.2272 59.6493 15.3448 59.8061 15.5015C60.1196 15.7759 60.1784 16.2462 60.0216 16.6381C59.904 16.932 59.6689 17.0888 59.3553 17.0888Z" fill="white"/>
<path d="M69.8594 15.3058C69.8594 14.7963 69.8594 14.326 69.8594 13.8361C69.8594 13.6401 69.9182 13.5814 70.1141 13.5814C70.4276 13.5814 70.7412 13.5814 71.0547 13.5814C71.1135 13.5814 71.2507 13.5422 71.2507 13.6793C71.2507 13.8165 71.1527 13.7773 71.0547 13.7773C70.8 13.7773 70.5844 13.7773 70.3297 13.7773C70.1337 13.7773 70.0749 13.8165 70.0749 13.9929C70.1141 14.3456 70.0749 14.6787 70.0749 15.0314C70.0749 15.149 70.1141 15.2274 70.2317 15.2274C70.4472 15.2274 70.6432 15.2274 70.8588 15.2274C70.9175 15.2274 71.0155 15.2274 71.0155 15.3254C71.0155 15.4234 70.9567 15.4234 70.8588 15.4234C70.6628 15.4234 70.4864 15.4234 70.2905 15.4234C70.1337 15.4234 70.0357 15.4625 70.0749 15.6389C70.0749 15.9916 70.0749 16.3248 70.0749 16.6971C70.0749 16.8538 70.1337 16.9126 70.2905 16.893C70.5452 16.893 70.8 16.893 71.0351 16.893C71.0939 16.893 71.2311 16.8538 71.2311 16.991C71.2311 17.1086 71.1331 17.089 71.0743 17.089C70.7216 17.089 70.4081 17.089 70.0749 17.089C69.879 17.089 69.8594 17.0302 69.8594 16.8734C69.8594 16.3052 69.8594 15.7957 69.8594 15.3058Z" fill="white"/>
<path d="M39.25 15.3055C39.25 14.796 39.25 14.3257 39.25 13.8358C39.25 13.6398 39.2892 13.5614 39.5047 13.581C39.8183 13.6202 40.171 13.581 40.4845 13.581C40.5433 13.581 40.6805 13.581 40.6413 13.6986C40.6413 13.7966 40.5433 13.7966 40.4845 13.7966C40.2298 13.7966 39.9554 13.7966 39.7007 13.7966C39.5831 13.7966 39.5047 13.8358 39.5047 13.9926C39.5047 14.3453 39.5047 14.6784 39.5047 15.0507C39.5047 15.2075 39.5635 15.2467 39.7007 15.2467C39.8967 15.2467 40.073 15.2467 40.269 15.2467C40.3278 15.2467 40.4649 15.2075 40.4649 15.3447C40.4649 15.5014 40.3474 15.4622 40.269 15.4622C40.073 15.4622 39.8967 15.4622 39.7399 15.4622C39.5831 15.4622 39.5243 15.5014 39.5243 15.6582C39.5243 16.0109 39.5243 16.344 39.5243 16.7164C39.5243 16.9123 39.5831 16.9319 39.7399 16.9319C39.9946 16.9319 40.2494 16.9319 40.4845 16.9319C40.5825 16.9319 40.6413 16.9319 40.6413 17.0495C40.6413 17.1475 40.5433 17.1475 40.4845 17.1475C40.1318 17.1475 39.8183 17.1475 39.4852 17.1475C39.3284 17.1475 39.2696 17.1083 39.2696 16.9319C39.25 16.3244 39.25 15.7954 39.25 15.3055Z" fill="white"/>
<path d="M53.9063 15.3059C53.9063 14.7964 53.9063 14.3065 53.9063 13.797C53.9063 13.6011 53.965 13.5423 54.161 13.5423C54.4745 13.5423 54.8272 13.5423 55.1408 13.5423C55.1996 13.5423 55.3367 13.5031 55.2975 13.6403C55.2975 13.7382 55.1996 13.7382 55.1408 13.7382C54.886 13.7382 54.6313 13.7382 54.3961 13.7382C54.2394 13.7382 54.1414 13.7774 54.1806 13.9538C54.1806 14.3065 54.1806 14.6397 54.1806 14.9924C54.1806 15.1491 54.2198 15.1883 54.3765 15.1883C54.5921 15.1883 54.7881 15.1883 55.0036 15.1883C55.0624 15.1883 55.1212 15.1883 55.1212 15.2863C55.1212 15.3843 55.0624 15.4039 55.0036 15.4039C54.8077 15.4039 54.5921 15.4039 54.4157 15.4039C54.259 15.4039 54.2002 15.4431 54.2002 15.5998C54.2002 15.9722 54.2002 16.3249 54.2002 16.6972C54.2002 16.854 54.259 16.8932 54.3961 16.8932C54.6509 16.8932 54.9252 16.8932 55.18 16.8932C55.278 16.8932 55.3367 16.8932 55.3367 17.0107C55.3367 17.1087 55.2388 17.1087 55.18 17.1087C54.8272 17.1087 54.4941 17.1087 54.1414 17.1087C53.9846 17.1087 53.9454 17.0499 53.9454 16.8932C53.9062 16.3249 53.9063 15.835 53.9063 15.3059Z" fill="white"/>
<path d="M50.1274 13.5814C50.2841 13.5814 50.4409 13.5814 50.5977 13.5814C50.6565 13.5814 50.7936 13.5422 50.7936 13.6793C50.7936 13.8165 50.6761 13.7773 50.5977 13.7773C50.3429 13.7773 50.0882 13.7773 49.853 13.7773C49.6963 13.7773 49.6375 13.8361 49.6571 13.9929C49.6571 14.3456 49.6571 14.6787 49.6571 15.0314C49.6571 15.1882 49.7159 15.2274 49.8726 15.2274C50.0686 15.2274 50.245 15.2274 50.4409 15.2274C50.4997 15.2274 50.6369 15.1882 50.5977 15.3254C50.5977 15.4234 50.4997 15.4234 50.4409 15.4234C50.245 15.4234 50.0294 15.4234 49.853 15.4234C49.6963 15.4234 49.6571 15.4625 49.6571 15.6193C49.6571 15.9916 49.6571 16.3444 49.6571 16.7167C49.6571 16.8734 49.7159 16.9126 49.853 16.9126C50.1078 16.9126 50.3625 16.9126 50.5977 16.9126C50.6957 16.9126 50.7936 16.8734 50.7936 17.0302C50.7936 17.1478 50.6761 17.1282 50.5977 17.1282C50.245 17.1282 49.9314 17.1282 49.5983 17.1282C49.4415 17.1282 49.4023 17.0694 49.4023 16.9126C49.4023 15.9132 49.4023 14.8747 49.4023 13.8753C49.4023 13.6793 49.4611 13.6205 49.6571 13.6205C49.7747 13.5814 49.9314 13.5814 50.1274 13.5814Z" fill="white"/>
<path d="M24.9451 15.3832C25.1607 14.7953 25.3566 14.2466 25.533 13.7567C25.5722 13.6587 25.5722 13.5412 25.7289 13.5608C25.8857 13.6195 25.7681 13.7175 25.7289 13.8155C25.631 14.0702 25.5722 14.3446 25.4546 14.5601C25.1411 15.2852 24.9843 16.0102 25.0431 16.794C25.0431 16.892 25.1411 17.0488 24.9255 17.0488C24.7296 17.0488 24.8079 16.892 24.8079 16.794C24.9647 15.7555 24.4944 14.8737 24.1809 13.9527C24.1417 13.8939 24.1221 13.7959 24.0829 13.7371C24.0437 13.6783 24.0241 13.6195 24.1221 13.5804C24.1809 13.5412 24.2788 13.5804 24.2788 13.6783C24.3376 13.8743 24.3964 14.0311 24.4748 14.2074C24.6512 14.5797 24.7883 14.9521 24.9451 15.3832Z" fill="white"/>
<path d="M85.3573 15.3829C85.5532 14.8538 85.7296 14.3443 85.8864 13.874C85.9256 13.8152 85.9452 13.7173 85.9843 13.6585C86.0235 13.5997 86.0431 13.5409 86.1411 13.5605C86.2391 13.5801 86.1999 13.6781 86.1803 13.7564C86.0823 14.0112 85.9843 14.2855 85.906 14.5403C85.5924 15.2653 85.3965 16.01 85.4945 16.833C85.4945 16.931 85.5532 17.0877 85.3769 17.0877C85.2005 17.0877 85.2593 16.931 85.2593 16.8722C85.4161 15.8728 84.985 14.9518 84.6714 14.0504C84.6322 13.9916 84.6126 13.9328 84.6126 13.8936C84.6126 13.7956 84.4559 13.6781 84.6126 13.6193C84.7694 13.5605 84.7694 13.7173 84.8086 13.8348C84.9654 14.2855 85.1417 14.795 85.3573 15.3829Z" fill="white"/>
<path d="M45.5221 15.3836C45.7377 14.7957 45.9336 14.2862 46.11 13.7572C46.1492 13.6592 46.1492 13.5416 46.3059 13.5612C46.4627 13.62 46.3451 13.718 46.3451 13.816C46.2471 14.0707 46.1884 14.345 46.0708 14.5606C45.7573 15.2856 45.6005 16.0107 45.6593 16.7945C45.6593 16.8925 45.7573 17.0492 45.5417 17.0492C45.3457 17.0492 45.4241 16.8925 45.4241 16.7945C45.5809 15.7951 45.1498 14.8741 44.7971 13.9727C44.7579 13.9139 44.7383 13.816 44.6991 13.7572C44.6599 13.6984 44.6011 13.6004 44.7383 13.5612C44.8558 13.522 44.895 13.6004 44.9342 13.6788C44.993 13.8747 45.0518 14.0511 45.1498 14.2471C45.2674 14.5998 45.3849 14.9917 45.5221 15.3836Z" fill="white"/>
<path d="M28.5687 15.384C28.5687 14.9529 28.5687 14.4826 28.5687 14.0319C28.5687 13.7771 28.4707 13.7183 28.2551 13.7575C28.1376 13.7575 27.8828 13.8555 27.8828 13.6596C27.8828 13.5028 28.0984 13.5616 28.2355 13.5616C28.6079 13.5616 28.9606 13.5616 29.3329 13.5616C29.3917 13.5616 29.5289 13.5616 29.4897 13.6792C29.4897 13.7771 29.3917 13.7771 29.3329 13.7771C29.1761 13.7771 28.9606 13.7183 28.8234 13.8163C28.7058 13.9339 28.7842 14.1886 28.7842 14.3846C28.7842 15.2076 28.7842 16.0502 28.7842 16.8537C28.7842 16.9516 28.843 17.0692 28.6862 17.1084C28.4903 17.1084 28.5687 16.9908 28.5687 16.8929C28.5687 16.3246 28.5687 15.8543 28.5687 15.384Z" fill="white"/>
<path d="M68.6429 15.3842C68.6429 14.9531 68.6429 14.5024 68.6429 14.0713C68.6429 13.8166 68.5841 13.7186 68.3294 13.7578C68.2118 13.7578 67.957 13.8754 67.957 13.6598C67.957 13.503 68.1726 13.601 68.3098 13.5618C68.6625 13.5618 68.9956 13.5618 69.3679 13.5618C69.4267 13.5618 69.5639 13.5226 69.5639 13.6598C69.5639 13.797 69.4659 13.7578 69.4071 13.7578C68.878 13.8166 68.878 13.8166 68.878 14.3457C68.878 15.1687 68.878 16.0113 68.878 16.8147C68.878 16.9127 68.9368 17.0303 68.7801 17.0303C68.5841 17.0303 68.6625 16.8735 68.6625 16.7755C68.6429 16.3248 68.6429 15.8545 68.6429 15.3842Z" fill="white"/>
<path d="M79.227 15.3045C79.227 14.795 79.227 14.3051 79.227 13.7956C79.227 13.6977 79.1878 13.5801 79.3446 13.5801C79.5014 13.5801 79.4622 13.6977 79.4622 13.7956C79.4622 14.697 79.5014 15.618 79.4622 16.5194C79.4622 16.7938 79.5601 16.8722 79.8149 16.833C80.0108 16.7938 80.1872 16.833 80.344 16.833C80.4419 16.833 80.5399 16.7938 80.5595 16.9309C80.5595 17.0877 80.4419 17.0289 80.3636 17.0289C80.05 17.0289 79.7757 17.0289 79.4622 17.0289C79.2662 17.0289 79.2466 16.9701 79.2466 16.8134C79.227 16.3235 79.227 15.7944 79.227 15.3045Z" fill="white"/>
<path d="M53.3219 15.3241C53.3219 14.8146 53.3219 14.2855 53.3219 13.7956C53.3219 13.6977 53.2631 13.5801 53.4395 13.5801C53.6354 13.5801 53.5571 13.6977 53.5571 13.7956C53.5571 14.8342 53.5571 15.8336 53.5571 16.8722C53.5571 16.9309 53.6158 17.0681 53.4591 17.0681C53.3023 17.0681 53.3415 16.9505 53.3415 16.8526C53.3219 16.3235 53.3219 15.8336 53.3219 15.3241Z" fill="white"/>
<path d="M56.4566 16.4219C56.4958 16.5199 56.4566 16.6178 56.3978 16.6962C56.339 16.5982 56.3586 16.5003 56.3586 16.4415C56.3586 16.4611 56.3978 16.4611 56.4566 16.4219Z" fill="white"/>
<path d="M17.832 0.117188C18.1064 0.117188 18.1455 0.215959 18.1455 0.470703V18.0283C18.1454 18.3024 18.0476 18.3809 17.793 18.3809H6.3291C6.11378 18.3808 5.95742 18.3216 5.80078 18.165C3.91962 16.2839 2.07745 14.4026 0.196289 12.5215C0.0787831 12.404 9.1115e-05 12.267 0 12.0908V0.430664C9.97337e-05 0.17627 0.0980715 0.117197 0.313477 0.117188H17.832ZM9.30762 3.1748C9.15116 3.13576 9.09288 3.1746 9.05371 3.33105C8.95573 3.76216 8.83724 4.21343 8.73926 4.64453C8.68051 4.87919 8.6216 4.87901 8.42578 4.83984C8.09283 4.74191 7.77932 4.64372 7.42676 4.58496C7.15243 4.52611 6.77991 4.27197 6.58398 4.42871C6.38826 4.5856 6.42705 4.99724 6.3291 5.27148C6.27049 5.428 6.29053 5.50674 6.48633 5.5459C6.68223 5.58509 6.89781 5.64338 7.11328 5.70215C7.4267 5.80009 7.54399 6.05478 7.48535 6.36816C7.11303 7.89663 6.70142 9.44517 6.3291 10.9736C6.2703 11.2282 6.11395 11.3458 5.85938 11.2871C5.64393 11.2675 5.46733 11.2287 5.27148 11.1699C5.15391 11.1307 5.05586 11.1304 4.99707 11.2871C4.8795 11.5614 4.74257 11.8555 4.625 12.1299C4.54662 12.2866 4.58542 12.3456 4.74219 12.3848C5.29085 12.5219 5.85948 12.6783 6.42773 12.7959C6.58429 12.8155 6.64274 12.8745 6.58398 13.0703C6.48609 13.2857 6.4474 13.5013 6.38867 13.7559C6.32989 14.0302 6.11385 14.3832 6.27051 14.54C6.38808 14.736 6.78035 14.7361 7.05469 14.7949H7.09375C7.21124 14.8732 7.27039 14.8335 7.30957 14.6768C7.36833 14.3242 7.42648 14.0107 7.52441 13.6973C7.68118 13.0702 7.68153 13.0706 8.30859 13.2666C8.46533 13.3058 8.50501 13.3647 8.46582 13.5215C8.38749 13.737 8.32829 13.9915 8.26953 14.2461C8.24991 14.5204 8.03478 14.8343 8.15234 15.0303C8.2702 15.2452 8.64195 15.1864 8.89648 15.2842C9.11196 15.3429 9.17077 15.2847 9.20996 15.0889C9.28833 14.6774 9.42557 14.305 9.48438 13.8936C9.52355 13.5998 9.641 13.58 9.89551 13.6387C10.307 13.7367 10.7193 13.7755 11.1504 13.7363C12.2867 13.6774 13.0312 13.0896 13.3447 11.9531C13.619 10.9735 13.4037 10.1894 12.3652 9.60156C12.369 9.59814 12.409 9.56448 12.502 9.60156C13.2466 9.34682 13.6188 8.77881 13.7168 8.03418C13.8148 7.25035 13.5012 6.64302 12.835 6.21191C12.7174 6.11401 12.561 6.05494 12.4043 5.95703C12.1692 5.83948 11.7181 5.8004 11.6592 5.58496C11.6004 5.33028 11.7966 4.97744 11.8555 4.70312C11.8751 4.44838 12.1294 4.1149 11.9727 3.91895C11.8158 3.72336 11.4246 3.76189 11.1504 3.66406C11.0328 3.58568 10.9738 3.62546 10.9346 3.78223C10.8758 4.09564 10.7775 4.37015 10.7188 4.68359C10.5621 5.32996 10.5617 5.32978 9.89551 5.11426C9.77823 5.05558 9.73917 5.01589 9.77832 4.89844C9.87618 4.68296 9.91586 4.42832 9.97461 4.21289C10.0335 3.95817 10.2484 3.62462 10.1309 3.42871C9.97389 3.23319 9.58178 3.27272 9.30762 3.1748Z" fill="white"/>
<path d="M20.0869 0.197481C20.9882 0.236632 21.9093 0.138578 22.8105 0.236544C24.1625 0.393335 24.6919 0.922582 24.8486 2.27463C24.9074 2.80358 24.9075 3.31306 24.8096 3.84201C24.692 4.44948 24.3974 4.95914 23.8096 5.27268C24.7502 5.68419 25.0048 6.46802 25.0244 7.34983C25.0636 7.97679 25.0833 8.64289 24.9658 9.23068C24.7503 10.2889 24.0251 10.9552 22.9277 10.9944C21.948 11.0335 20.9875 10.9942 20.0078 11.0334C19.8468 11.0333 19.8172 10.9678 19.8125 10.8772V0.471895C19.8125 0.256342 19.8518 0.197481 20.0869 0.197481ZM21.6738 6.21311C21.5564 6.17404 21.5176 6.25281 21.5176 6.37033V9.34885C21.5177 9.46607 21.5956 9.50504 21.7129 9.5051C22.0067 9.5051 22.3204 9.54424 22.5947 9.5051C23.065 9.46591 23.281 9.25063 23.3398 8.78049C23.379 8.50618 23.3789 8.21203 23.3789 7.93772C23.3397 7.62425 23.3399 7.31065 23.3008 7.03635C23.242 6.48778 22.9478 6.25237 22.4189 6.21311H21.6738ZM21.7129 1.76486C21.5367 1.72578 21.4971 1.82397 21.4971 1.98068V3.176C21.4971 3.39146 21.4971 3.64603 21.4775 3.88108C21.4775 4.68445 21.4779 4.68497 22.3008 4.62619C22.7711 4.587 23.026 4.33171 23.124 3.90061C23.2219 3.39123 23.222 2.9012 23.124 2.39182C23.0652 1.98044 22.8099 1.76486 22.3789 1.76486C22.1439 1.76491 21.9283 1.80403 21.7129 1.76486Z" fill="white"/>
<path d="M39.9941 2.48828C40.0531 0.568196 41.4053 -0.020037 42.9141 0.136719C44.2855 0.293605 45.0497 1.17596 45.0693 2.64551C45.1673 3.64485 45.1475 4.64421 45.1475 5.64355V8.58301C45.1474 9.01403 45.0494 9.46454 44.873 9.87598C44.6183 10.4051 44.246 10.7777 43.6777 10.9736C42.9528 11.2283 42.2084 11.2478 41.4443 10.9736C40.4451 10.6014 40.0334 9.7589 39.9941 8.7793C39.9549 6.68255 39.9354 4.58502 39.9941 2.48828ZM42.6006 1.60645C42.1303 1.60645 41.8754 1.80327 41.7578 2.23438C41.6992 2.39101 41.6982 2.54747 41.6982 2.7041V8.50488C41.6982 8.66147 41.6991 8.7789 41.7383 8.93555C41.8558 9.3861 42.1101 9.60143 42.5801 9.60156C43.0308 9.60156 43.3053 9.36665 43.4033 8.93555C43.4425 8.77895 43.4424 8.62241 43.4424 8.46582V5.64355C43.4424 4.68336 43.4423 3.74255 43.4814 2.74316C43.4814 2.58656 43.462 2.391 43.4229 2.23438C43.2857 1.82302 43.0314 1.6066 42.6006 1.60645Z" fill="white"/>
<path d="M65.5869 13.582H65.9395C66.6056 13.582 66.8406 13.7775 66.8799 14.4238C66.9191 15.0901 66.9388 15.7372 66.8408 16.3643C66.782 16.8344 66.5276 17.0301 66.0967 17.0498C65.3521 17.089 65.3516 17.0892 65.3516 16.3252C65.3124 15.9921 65.3125 15.6388 65.3125 15.3057V13.8359C65.3126 13.6207 65.3715 13.5624 65.5869 13.582ZM65.8223 13.7773C65.6263 13.7773 65.5674 13.7972 65.5674 13.9932V15.3057C65.5674 15.776 65.5673 16.2076 65.6064 16.6387C65.6064 16.7365 65.5673 16.8153 65.665 16.8545C66.1353 17.07 66.665 16.7556 66.665 16.2266V14.6006C66.665 13.9344 66.4884 13.7774 65.8223 13.7773Z" fill="white"/>
<path d="M47.9316 13.5408C49.0678 13.443 49.0676 13.9725 48.9893 14.8934C48.9305 15.1478 48.7739 15.2652 48.5586 15.3826C48.9112 15.5002 48.9893 15.7557 48.9893 16.0496C48.9892 16.3435 48.95 16.6182 49.0283 16.8924C49.0288 16.9511 49.1261 17.0096 48.9893 17.0487C48.8914 17.0877 48.7932 17.0097 48.793 16.9315C48.7538 16.8139 48.7539 16.676 48.7539 16.5584V16.245C48.7538 15.6573 48.499 15.4224 47.8721 15.5008C47.7937 15.5205 47.7646 15.5499 47.7549 15.5867V16.8719C47.7549 16.9306 47.794 17.0289 47.6572 17.0682C47.5397 17.0682 47.5391 16.9699 47.5391 16.8719V13.7371C47.5391 13.5804 47.5982 13.5408 47.7354 13.5408H47.9316ZM48.0488 13.7762C47.8333 13.737 47.6962 13.7959 47.7354 14.0506C47.7745 14.2074 47.7354 14.3646 47.7354 14.5213V15.1483C47.7354 15.2069 47.7354 15.2654 47.7939 15.3045C47.9115 15.3829 48.5382 15.2658 48.6367 15.1092C48.8327 14.7761 48.7933 14.4033 48.6758 14.0506C48.5778 13.7371 48.3035 13.8154 48.0488 13.7762Z" fill="white"/>
<path d="M23.0654 13.543C23.4376 13.5822 23.6532 13.7978 23.6924 14.1309C23.7314 14.3267 23.6924 14.5425 23.6924 14.7188C23.6923 15.0515 23.614 15.1694 23.2812 15.3848C23.5944 15.5024 23.6924 15.7374 23.6924 16.0508C23.6924 16.3251 23.6531 16.6192 23.7314 16.8936C23.7316 16.9523 23.8291 17.0106 23.6924 17.0498C23.5944 17.089 23.5353 17.0501 23.4961 16.9521C23.457 16.8542 23.457 16.7561 23.457 16.6777V16.2471C23.457 15.6592 23.1827 15.4236 22.5752 15.502C22.4969 15.5215 22.4678 15.5512 22.458 15.5879V16.874C22.4581 16.9328 22.4964 17.0302 22.3594 17.0693C22.2423 17.0691 22.2422 16.9718 22.2422 16.874V13.7383C22.2422 13.6208 22.2819 13.543 22.3994 13.543H23.0654ZM23.3984 14.0713C23.3199 13.8363 22.9474 13.7381 22.5752 13.7969C22.3401 13.8361 22.4972 14.0522 22.458 14.209C22.4189 14.3069 22.458 14.4049 22.458 14.5225V15.1299C22.458 15.1886 22.4384 15.247 22.4971 15.2861C22.6537 15.4428 23.3389 15.2281 23.3984 15.0127C23.4964 14.6992 23.4964 14.3848 23.3984 14.0713Z" fill="white"/>
<path d="M37.7002 13.5227C38.8366 13.4247 38.8372 13.9926 38.7393 14.8938C38.7197 15.1485 38.5622 15.2664 38.3467 15.384C38.6993 15.5015 38.7783 15.7561 38.7783 16.0695C38.7783 16.3439 38.739 16.5989 38.8174 16.8928C38.8174 16.9515 38.9152 17.0108 38.7783 17.05C38.6803 17.0892 38.582 17.0494 38.582 16.9318C38.5429 16.7164 38.543 16.5009 38.543 16.2658C38.543 15.6388 38.386 15.4816 37.7197 15.4816C37.563 15.4817 37.5039 15.5408 37.5039 15.6975V16.8537C37.5039 16.9125 37.5434 17.0108 37.4063 17.05C37.2887 17.05 37.2891 16.9908 37.2891 16.8537V13.718C37.2892 13.5616 37.3475 13.5227 37.4844 13.5227H37.7002ZM37.877 13.7775C37.6222 13.7775 37.5243 13.8363 37.5635 14.091V14.5217C37.5635 14.7372 37.5634 14.9136 37.6025 15.1486C37.6025 15.2074 37.5632 15.2667 37.6611 15.3059C38.0921 15.5016 38.6014 15.1881 38.6016 14.718V14.5022C38.6016 13.934 38.4449 13.8168 37.877 13.7775Z" fill="white"/>
<path d="M35.626 13.5801H35.9004C36.2727 13.5801 36.6839 13.5415 36.8799 13.9922C37.0562 14.482 36.8996 15.0693 36.4883 15.3828C36.8018 15.5004 36.8994 15.7558 36.8994 16.0693C36.8994 16.3239 36.8612 16.5979 36.9395 16.8525C36.9395 16.9113 37.0562 17.0096 36.8994 17.0488C36.7822 17.0877 36.7043 17.0098 36.7041 16.8926C36.7041 16.7358 36.665 16.5786 36.665 16.4219V16.0107C36.6258 15.5992 36.0764 15.3246 35.7236 15.501C35.6261 15.5597 35.665 15.6189 35.665 15.7168V17.0068C35.6553 17.0437 35.6264 17.0683 35.5479 17.0684C35.4695 17.0684 35.4395 17.0392 35.4297 17V13.7764C35.4297 13.6588 35.4694 13.5606 35.626 13.5801ZM35.8027 13.7764C35.5286 13.8351 35.7233 14.0503 35.6846 14.207C35.6454 14.305 35.6846 14.4039 35.6846 14.5215C35.6846 14.7368 35.6847 14.9135 35.6455 15.1484C35.6455 15.207 35.6457 15.2656 35.7041 15.3047C35.9784 15.4614 36.5855 15.2069 36.6445 14.9326C36.7033 14.6779 36.7033 14.4032 36.6445 14.1484C36.5465 13.8353 36.2726 13.7177 35.8027 13.7764Z" fill="white"/>
<path d="M81.6749 13.542C82.0473 13.5811 82.3419 13.8159 82.3419 14.2666C82.3615 14.5997 82.3615 14.9529 82.3615 15.3252V16.3242C82.3614 16.7944 82.0864 17.0683 81.6749 17.0683C81.2048 17.1074 80.8918 16.8725 80.8527 16.4023C80.7939 15.6578 80.7939 14.933 80.8527 14.1689C80.8918 13.6987 81.2048 13.5029 81.6749 13.542ZM81.5773 13.7373C81.2639 13.7374 81.1077 13.9335 81.0685 14.3056V16.2656C81.1077 16.618 81.264 16.8339 81.5773 16.8339C81.8908 16.8731 82.1456 16.6769 82.1456 16.3047C82.1848 15.6384 82.1848 14.9524 82.1456 14.2666C82.1064 13.8942 81.8908 13.7373 81.5773 13.7373Z" fill="white"/>
<path d="M78.1681 13.5606C78.5795 13.5997 78.8349 13.8736 78.8546 14.3438V16.3037C78.8545 16.7739 78.5795 17.0487 78.1681 17.0879C77.698 17.1269 77.385 16.8911 77.3458 16.4014C77.3066 15.6764 77.3066 14.9515 77.3458 14.2461C77.385 13.7759 77.698 13.5215 78.1681 13.5606ZM78.0509 13.7168C77.7766 13.756 77.5812 13.9326 77.5811 14.2852V16.2256C77.5812 16.6367 77.7571 16.8524 78.1095 16.8525C78.4229 16.8525 78.5995 16.6369 78.6388 16.2256V15.3242C78.5996 14.952 78.6388 14.5793 78.6192 14.1875C78.58 13.8348 78.3644 13.6776 78.0509 13.7168Z" fill="white"/>
<path d="M30.6671 13.542C31.0394 13.5811 31.3341 13.8159 31.3341 14.2666C31.3537 14.5997 31.3536 14.9529 31.3536 15.3252V16.3242C31.3536 16.7944 31.0786 17.0683 30.6671 17.0683C30.197 17.1074 29.884 16.8725 29.8449 16.4023C29.7861 15.6578 29.7861 14.933 29.8449 14.1689C29.884 13.6987 30.197 13.5029 30.6671 13.542ZM30.589 13.7373C30.2756 13.7373 30.1184 13.9334 30.0792 14.3056V15.3047C30.0792 15.6378 30.04 15.9521 30.0792 16.2656C30.1185 16.6181 30.2756 16.8339 30.589 16.8339C30.9025 16.8731 31.1573 16.6769 31.1574 16.3047C31.1965 15.6384 31.1965 14.9524 31.1574 14.2666C31.1182 13.8942 30.9025 13.7373 30.589 13.7373Z" fill="white"/>
<path d="M62.0779 13.543C62.2932 13.543 62.2743 13.6989 62.2937 13.7969C62.5093 14.7963 62.7246 15.7964 62.9598 16.835C62.999 16.8546 63.0184 16.8936 62.9988 16.8936C63.038 17.0111 62.999 17.0498 62.9402 17.0498C62.8425 17.0498 62.8231 17.05 62.784 16.9521C62.7448 16.7955 62.7245 16.6781 62.6853 16.5215C62.6462 16.3255 62.5678 16.2665 62.3719 16.3057H62.1766C61.5495 16.3057 61.5491 16.3057 61.3924 16.8936C61.3533 16.9914 61.3534 17.1083 61.2361 17.0498C61.0797 17.0107 61.1762 16.8939 61.1961 16.835C61.4116 15.8356 61.6279 14.8354 61.8631 13.7969C61.9021 13.6795 61.9022 13.5432 62.0779 13.543ZM61.5887 16.0703H62.4705C62.5488 16.0703 62.6267 16.0704 62.5877 15.9531C62.4309 15.3065 62.2747 14.6203 62.118 13.9541C62.118 13.9541 62.078 13.9542 62.0584 13.9346C61.9017 14.6203 61.7454 15.3454 61.5887 16.0703Z" fill="white"/>
<path d="M26.415 13.541C27.4732 13.5018 27.6299 13.6586 27.6299 14.7363C27.6299 15.4025 27.4143 15.6183 26.748 15.5791C26.4739 15.5791 26.3759 15.6377 26.3955 15.9512C26.4347 16.2647 26.3955 16.539 26.3955 16.8525C26.3955 16.9113 26.4348 17.0096 26.2979 17.0488C26.1803 17.0488 26.1797 16.9505 26.1797 16.8525C26.1601 16.3627 26.1602 15.8532 26.1602 15.3242V13.7959C26.1602 13.6 26.2192 13.5802 26.415 13.541ZM26.7285 13.7568C26.4738 13.7177 26.3368 13.796 26.376 14.0703C26.415 14.2269 26.376 14.4225 26.376 14.5791C26.376 14.7947 26.3759 15.011 26.3955 15.2266C26.3955 15.3242 26.3957 15.3827 26.5127 15.4219C27.1005 15.5394 27.414 15.285 27.4141 14.6973V14.4424C27.3945 13.9133 27.2576 13.796 26.7285 13.7568Z" fill="white"/>
<path d="M9.8382 12.1894C9.26992 12.1502 8.74084 12.0326 8.17256 11.8758C8.05499 11.8366 7.97661 11.7779 8.05499 11.6603C8.21175 10.994 8.36852 10.3474 8.56448 9.7203C8.60367 9.62232 8.60367 9.52434 8.76044 9.56354C9.42669 9.7203 10.1125 9.87707 10.7004 10.2494C11.0531 10.4649 11.3275 10.7785 11.2883 11.2292C11.2491 11.7583 10.916 12.111 10.3869 12.209C10.1909 12.1894 10.0342 12.1894 9.8382 12.1894Z" fill="white"/>
<path d="M10.4252 8.72131C9.89615 8.72131 9.44545 8.60374 9.01435 8.46657C8.85758 8.42738 8.85758 8.36859 8.89677 8.21183C9.05354 7.62395 9.17111 7.05568 9.32788 6.44821C9.36707 6.35023 9.38667 6.29144 9.52384 6.33064C10.1117 6.4874 10.7388 6.58538 11.2483 6.99689C11.5226 7.21244 11.6598 7.52597 11.601 7.8787C11.5422 8.23142 11.3462 8.46657 11.0131 8.60374C10.778 8.72132 10.582 8.74091 10.4252 8.72131Z" fill="white"/>
</svg>
