<svg width="54" height="55" viewBox="0 0 54 55" fill="none" xmlns="http://www.w3.org/2000/svg">
<path d="M45.4043 1.93213L53 9.52783V52.8813L51.9492 53.9321H8.5957L1 46.3364V2.98291L2.05078 1.93213H45.4043Z" fill="#222222" stroke="#98FF19" stroke-width="2"/>
<path d="M12.5667 26.3746C12.5667 26.3746 25.5219 21.0739 30.015 19.2076C31.7373 18.4611 37.5784 16.072 37.5784 16.072C37.5784 16.072 40.2742 15.027 40.0496 17.5651C39.9746 18.6103 39.3755 22.2684 38.7764 26.2251C37.8778 31.8244 36.9043 37.9459 36.9043 37.9459C36.9043 37.9459 36.7547 39.6631 35.4817 39.9617C34.2085 40.2604 32.1117 38.9165 31.7373 38.6179C31.4378 38.3938 26.121 35.0344 24.1741 33.3921C23.6498 32.9442 23.0507 32.0482 24.2489 31.003C26.9447 28.5396 30.1648 25.4786 32.1117 23.5376C33.0103 22.6416 33.909 20.5512 30.1648 23.0895C24.848 26.7476 19.606 30.1819 19.606 30.1819C19.606 30.1819 18.408 30.9284 16.1614 30.2565C13.9149 29.5846 11.2939 28.6888 11.2939 28.6888C11.2939 28.6888 9.49678 27.5688 12.5671 26.3746H12.5667Z" stroke="white" stroke-width="2"/>
</svg>
