<svg width="47" height="57" viewBox="0 0 47 57" fill="none" xmlns="http://www.w3.org/2000/svg">
<path fill-rule="evenodd" clip-rule="evenodd" d="M19.7677 0.230988C16.6983 0.954149 14.677 1.91931 11.84 4.01682C10.7499 4.82276 9.72911 5.55604 9.57149 5.64658C9.22173 5.84718 8.64604 5.5471 6.8448 4.22519C6.08327 3.66641 5.4241 3.24545 5.3798 3.29013C5.16808 3.50367 6.33486 5.62965 7.59025 7.31796C10.2556 10.9025 14.6655 14.7436 18.6448 16.9465L20.2031 17.8093L21.2551 17.3258C22.5858 16.7143 24.2986 16.704 25.7934 17.2983C26.9364 17.7526 26.943 17.7526 27.8425 17.2677C29.7767 16.2252 34.1943 13.0327 35.8976 11.4467C36.882 10.53 38.2034 9.1201 38.8339 8.31369C40.1065 6.68605 41.7427 3.96132 41.6373 3.64548C41.5997 3.53354 41.097 3.76401 40.5199 4.15746C39.9428 4.55114 39.0626 5.08898 38.5639 5.35285L37.6571 5.83237L37.0483 5.33497C33.7958 2.67868 31.3473 1.29163 28.5117 0.499091C26.6604 -0.0185281 21.4986 -0.176569 19.7677 0.230988ZM5.93568 12.3225C4.73532 14.9122 4.3872 16.6828 4.37577 20.2525C4.35945 25.3092 3.95234 32.581 3.55945 34.8333C2.91473 38.5293 1.99745 41.5715 0.598201 44.6549C0.201345 45.5295 -0.0621364 46.307 0.012711 46.3825C0.0875584 46.4579 1.46909 45.446 3.08285 44.1335C4.69661 42.821 6.11102 41.8057 6.22574 41.8772C6.34069 41.9487 7.35125 43.5152 8.47186 45.358C9.59224 47.2009 10.5944 48.805 10.6989 48.9226C10.8064 49.0437 11.9424 48.1526 13.3139 46.8716L15.7388 44.6067L19.4224 50.6556C21.4484 53.9826 23.2205 56.8294 23.3608 56.982C23.5496 57.1878 24.6022 55.6563 27.4422 51.0438C29.5468 47.6251 31.3624 44.8282 31.4767 44.8282C31.5909 44.8282 32.6757 45.7806 33.8872 46.9448C35.0987 48.1089 36.1837 49.0613 36.2982 49.0613C36.4124 49.0613 36.5617 48.9155 36.6295 48.7373C36.8538 48.1477 40.8501 41.7709 40.9951 41.7709C41.0735 41.7709 42.4408 42.8309 44.0336 44.1264C45.6263 45.4218 46.9603 46.3888 46.9979 46.2755C47.0354 46.1619 46.5763 44.8639 45.978 43.3908C44.6454 40.1111 43.6624 36.2803 43.3222 33.0401C42.6143 26.3071 44.3381 17.2059 40.7333 11.2219L40.2865 10.4811L38.919 12.0838C38.1668 12.9652 37.4848 13.8977 37.4036 14.1559C37.3223 14.4141 37.4657 15.2273 37.7221 15.9632C38.2908 17.5958 38.3104 18.6364 37.7968 19.9539C36.9098 22.2282 35.4464 23.3766 32.6045 24.0284L30.9143 24.4163L31.067 25.5091C31.151 26.1104 31.2659 26.764 31.3226 26.962C31.379 27.1598 32.6854 28.0567 34.2258 28.9549C35.7663 29.853 36.9944 30.6851 36.955 30.8038C36.9158 30.9228 35.8477 31.5606 34.5813 32.2212C31.7423 33.7023 30.0523 35.2813 29.096 37.3461C28.5215 38.5867 23.7467 52.3147 23.7247 52.7895C23.7007 53.3034 22.9631 51.2976 20.9432 45.2263C19.5621 41.0746 18.3319 37.7988 17.8313 36.939C16.6706 34.9462 15.1372 33.5984 12.3721 32.1401C11.0617 31.4491 10.0383 30.8043 10.0977 30.7072C10.1572 30.61 11.414 29.8229 12.8907 28.9582C14.3671 28.0934 15.6698 27.2078 15.7852 26.9902C15.9006 26.7725 16.0272 26.0679 16.0664 25.424L16.1378 24.2535L14.5853 23.9697C12.6041 23.6075 11.397 22.9813 10.3869 21.791C8.9895 20.1446 8.77381 18.7375 9.49174 15.95L9.9336 14.2342L8.57096 12.505C7.82178 11.5539 7.11155 10.7153 6.99287 10.6412C6.87442 10.5674 6.39852 11.3239 5.93568 12.3225ZM12.2147 16.9794C11.9498 17.6755 12.072 18.9739 12.4586 19.5689C13.0191 20.4317 14.4298 21.0756 15.7598 21.0756C16.8977 21.0756 18.3727 20.6963 18.3643 20.4059C18.3601 20.253 12.7116 16.6073 12.4789 16.6073C12.4115 16.6073 12.2926 16.7748 12.2147 16.9794ZM31.6609 18.385C30.187 19.3427 28.9452 20.2335 28.902 20.3642C28.6955 20.9893 31.6728 21.3256 32.9851 20.8254C33.9527 20.4567 34.8994 19.4478 35.053 18.6214C35.1909 17.8808 34.8479 16.5925 34.5217 16.6257C34.4223 16.6356 33.135 17.4274 31.6609 18.385ZM21.6093 20.4292C20.3784 21.2516 19.6397 22.981 19.3051 25.8228C19.1482 27.157 18.8784 28.4747 18.7059 28.7515C18.5334 29.028 17.8562 29.5663 17.2013 29.9478L16.0105 30.6411L17.302 31.6243C19.6106 33.3825 21.2379 36.0959 22.6817 40.5951C23.0345 41.6945 23.399 42.6785 23.4918 42.7815C23.5844 42.8847 23.9966 41.9323 24.4075 40.6649C25.7682 36.4682 26.8103 34.6033 29.0093 32.4279L30.9651 30.4932L29.8051 29.9003C29.1672 29.5741 28.5362 29.1023 28.4033 28.8519C28.2704 28.6012 28.0598 27.406 27.9353 26.1958C27.4713 21.6812 26.229 19.8998 23.5447 19.8998C22.7493 19.8998 22.1605 20.0609 21.6093 20.4292Z" fill="white"/>
</svg>
